<?xml version="1.0" encoding="UTF-8"?>
<!DOCTYPE svg PUBLIC "-//W3C//DTD SVG 1.1//EN" "http://www.w3.org/Graphics/SVG/1.1/DTD/svg11.dtd">
<svg xmlns="http://www.w3.org/2000/svg" version="1.1" width="64px" height="64px" style="shape-rendering:geometricPrecision; text-rendering:geometricPrecision; image-rendering:optimizeQuality; fill-rule:evenodd; clip-rule:evenodd" xmlns:xlink="http://www.w3.org/1999/xlink">
<g><path style="opacity:1" fill="#c1d1c9" d="M -0.5,-0.5 C 14.8333,-0.5 30.1667,-0.5 45.5,-0.5C 44.6371,0.940261 44.6371,2.27359 45.5,3.5C 44.0878,4.80638 42.4211,5.63971 40.5,6C 41.5,6.33333 42.5,6.66667 43.5,7C 42.5842,7.27842 41.9175,7.77842 41.5,8.5C 38.4675,9.5324 36.4675,11.5324 35.5,14.5C 35.8841,12.3352 35.2174,10.6685 33.5,9.5C 31.8888,10.3202 31.2222,11.6536 31.5,13.5C 29.0034,11.1289 26.0034,10.1289 22.5,10.5C 21.7257,16.6391 24.3923,19.6391 30.5,19.5C 31.7563,21.941 31.7563,24.2743 30.5,26.5C 29.8333,27.5 29.1667,28.5 28.5,29.5C 27.4168,29.5394 26.4168,29.8728 25.5,30.5C 24.6816,27.8929 24.1816,25.2263 24,22.5C 23.1841,21.1772 22.0174,20.5106 20.5,20.5C 19.2196,19.0687 17.5529,18.4021 15.5,18.5C 15.2053,20.7354 15.5386,22.7354 16.5,24.5C 17.665,27.5902 19.9983,28.9236 23.5,28.5C 23.634,30.2915 23.3007,31.9582 22.5,33.5C 17.8387,36.1628 15.172,40.1628 14.5,45.5C 13.6909,47.2922 13.1909,49.2922 13,51.5C 12.6516,46.3257 10.1516,42.6591 5.5,40.5C 5.83333,39.8333 6.16667,39.1667 6.5,38.5C 4.92217,37.9276 3.42217,37.5943 2,37.5C 1.31312,39.5675 1.47978,41.5675 2.5,43.5C 1.63388,45.4317 0.967212,47.4317 0.5,49.5C 1.68081,51.8632 1.68081,54.1966 0.5,56.5C 1.02527,57.1924 1.69194,57.6924 2.5,58C 1.59391,59.6995 1.26057,61.5328 1.5,63.5C 0.833333,63.5 0.166667,63.5 -0.5,63.5C -0.5,42.1667 -0.5,20.8333 -0.5,-0.5 Z"/></g>
<g><path style="opacity:1" fill="#c0cfc6" d="M 45.5,-0.5 C 51.5,-0.5 57.5,-0.5 63.5,-0.5C 63.5,20.8333 63.5,42.1667 63.5,63.5C 60.1667,63.5 56.8333,63.5 53.5,63.5C 53.0825,62.7784 52.4158,62.2784 51.5,62C 52.677,59.8422 52.0103,58.3422 49.5,57.5C 46.9722,58.1689 46.9722,59.0022 49.5,60C 47.5,60.6667 45.5,60.6667 43.5,60C 44.1667,59.6667 44.8333,59.3333 45.5,59C 42.6135,56.4581 42.9469,54.6247 46.5,53.5C 48.0983,54.4847 49.765,54.6514 51.5,54C 52.8333,53 52.8333,52 51.5,51C 52.2106,49.7453 53.044,48.5786 54,47.5C 54.3333,47.8333 54.6667,48.1667 55,48.5C 55.4828,47.552 55.6495,46.552 55.5,45.5C 54.1779,45.33 53.0113,45.6634 52,46.5C 51.2547,44.7971 50.4214,43.1305 49.5,41.5C 49.6667,40.8333 49.8333,40.1667 50,39.5C 50.9653,41.2603 52.132,41.5937 53.5,40.5C 51.6652,39.5723 51.3318,38.4056 52.5,37C 54.2556,36.7978 55.9223,36.2978 57.5,35.5C 56.91,34.2011 55.91,33.3678 54.5,33C 55.7108,28.1218 55.7108,23.2885 54.5,18.5C 53.126,14.6867 52.2926,15.0201 52,19.5C 50.9639,16.3201 51.7972,13.8201 54.5,12C 53.6634,10.9887 53.33,9.82207 53.5,8.5C 50.4552,8.49205 47.4552,8.15872 44.5,7.5C 44.7678,9.09903 44.4345,10.4324 43.5,11.5C 43.7148,9.82124 43.0481,8.82124 41.5,8.5C 41.9175,7.77842 42.5842,7.27842 43.5,7C 42.5,6.66667 41.5,6.33333 40.5,6C 42.4211,5.63971 44.0878,4.80638 45.5,3.5C 44.6371,2.27359 44.6371,0.940261 45.5,-0.5 Z"/></g>
<g><path style="opacity:1" fill="#515345" d="M 35.5,14.5 C 34.0413,14.5674 32.7079,14.2341 31.5,13.5C 31.2222,11.6536 31.8888,10.3202 33.5,9.5C 35.2174,10.6685 35.8841,12.3352 35.5,14.5 Z"/></g>
<g><path style="opacity:1" fill="#403c2c" d="M 31.5,13.5 C 31.5,15.5 31.5,17.5 31.5,19.5C 31.1667,19.5 30.8333,19.5 30.5,19.5C 24.3923,19.6391 21.7257,16.6391 22.5,10.5C 26.0034,10.1289 29.0034,11.1289 31.5,13.5 Z"/></g>
<g><path style="opacity:1" fill="#68a55f" d="M 23.5,11.5 C 27.2928,11.4404 29.4594,13.1071 30,16.5C 28.8867,14.6707 27.3867,13.8374 25.5,14C 28.1438,16.2914 27.8105,16.7914 24.5,15.5C 23.7542,14.2638 23.4208,12.9305 23.5,11.5 Z"/></g>
<g><path style="opacity:1" fill="#b3c1bc" d="M 31.5,13.5 C 32.7079,14.2341 34.0413,14.5674 35.5,14.5C 34.5129,16.5511 33.1795,18.2178 31.5,19.5C 31.5,17.5 31.5,15.5 31.5,13.5 Z"/></g>
<g><path style="opacity:1" fill="#5d524c" d="M 20.5,20.5 C 19.1667,20.5 17.8333,20.5 16.5,20.5C 16.5,21.8333 16.5,23.1667 16.5,24.5C 15.5386,22.7354 15.2053,20.7354 15.5,18.5C 17.5529,18.4021 19.2196,19.0687 20.5,20.5 Z"/></g>
<g><path style="opacity:1" fill="#3e392a" d="M 20.5,20.5 C 22.0174,20.5106 23.1841,21.1772 24,22.5C 24.1816,25.2263 24.6816,27.8929 25.5,30.5C 26.4168,29.8728 27.4168,29.5394 28.5,29.5C 26.8525,31.3264 24.8525,32.6597 22.5,33.5C 23.3007,31.9582 23.634,30.2915 23.5,28.5C 19.9983,28.9236 17.665,27.5902 16.5,24.5C 21.4808,27.3679 22.1475,26.8679 18.5,23C 20.3867,22.8374 21.8867,23.6707 23,25.5C 22.9421,23.5646 22.1088,21.8979 20.5,20.5 Z"/></g>
<g><path style="opacity:1" fill="#573e2d" d="M 30.5,26.5 C 26.686,26.3491 25.0193,24.3491 25.5,20.5C 29.314,20.6509 30.9807,22.6509 30.5,26.5 Z"/></g>
<g><path style="opacity:1" fill="#5c9553" d="M 20.5,20.5 C 22.1088,21.8979 22.9421,23.5646 23,25.5C 21.8867,23.6707 20.3867,22.8374 18.5,23C 22.1475,26.8679 21.4808,27.3679 16.5,24.5C 16.5,23.1667 16.5,21.8333 16.5,20.5C 17.8333,20.5 19.1667,20.5 20.5,20.5 Z"/></g>
<g><path style="opacity:1" fill="#898b83" d="M 39.5,26.5 C 39.5,27.1667 39.5,27.8333 39.5,28.5C 38.438,30.2341 38.438,31.9008 39.5,33.5C 38.8333,33.5 38.1667,33.5 37.5,33.5C 36.8902,32.609 36.5569,31.609 36.5,30.5C 37.0256,28.7697 38.0256,27.4363 39.5,26.5 Z"/></g>
<g><path style="opacity:1" fill="#4f583b" d="M 17.5,29.5 C 20.1662,29.0658 21.3329,30.0658 21,32.5C 17.4034,34.0661 16.2368,33.0661 17.5,29.5 Z"/></g>
<g><path style="opacity:1" fill="#3f3329" d="M 36.5,30.5 C 36.5569,31.609 36.8902,32.609 37.5,33.5C 36.8333,33.5 36.1667,33.5 35.5,33.5C 34.5084,33.6716 33.8417,33.3382 33.5,32.5C 34.5,31.8333 35.5,31.1667 36.5,30.5 Z"/></g>
<g><path style="opacity:1" fill="#3d3b2b" d="M 48.5,27.5 C 45.3354,26.9635 42.6688,27.7969 40.5,30C 41.0944,30.4643 41.7611,30.631 42.5,30.5C 42.0825,31.2216 41.4158,31.7216 40.5,32C 42.9894,32.9411 44.9894,32.4411 46.5,30.5C 47.1667,30.1667 47.8333,29.8333 48.5,29.5C 47.0564,34.2596 44.0564,35.5929 39.5,33.5C 38.438,31.9008 38.438,30.2341 39.5,28.5C 42.3728,26.3732 45.3728,26.0399 48.5,27.5 Z"/></g>
<g><path style="opacity:1" fill="#664b36" d="M 41.5,8.5 C 43.0481,8.82124 43.7148,9.82124 43.5,11.5C 42.7101,12.7942 41.7101,13.9609 40.5,15C 37.0093,14.8425 35.1759,16.3425 35,19.5C 36.8453,16.8157 38.012,17.149 38.5,20.5C 38.0754,25.3494 36.0754,29.3494 32.5,32.5C 30.2512,33.0798 28.5846,34.4131 27.5,36.5C 21.2955,39.9028 18.4621,45.2362 19,52.5C 17.6439,51.6198 16.1439,51.2865 14.5,51.5C 14.5,49.5 14.5,47.5 14.5,45.5C 15.172,40.1628 17.8387,36.1628 22.5,33.5C 24.8525,32.6597 26.8525,31.3264 28.5,29.5C 29.1667,28.5 29.8333,27.5 30.5,26.5C 31.7563,24.2743 31.7563,21.941 30.5,19.5C 30.8333,19.5 31.1667,19.5 31.5,19.5C 33.1795,18.2178 34.5129,16.5511 35.5,14.5C 36.4675,11.5324 38.4675,9.5324 41.5,8.5 Z"/></g>
<g><path style="opacity:1" fill="#797c73" d="M 32.5,32.5 C 32.8333,32.5 33.1667,32.5 33.5,32.5C 33.8417,33.3382 34.5084,33.6716 35.5,33.5C 33.3713,34.2028 31.3713,35.2028 29.5,36.5C 28.8333,36.5 28.1667,36.5 27.5,36.5C 28.5846,34.4131 30.2512,33.0798 32.5,32.5 Z"/></g>
<g><path style="opacity:1" fill="#c0d0c8" d="M 53.5,63.5 C 36.1667,63.5 18.8333,63.5 1.5,63.5C 1.26057,61.5328 1.59391,59.6995 2.5,58C 1.69194,57.6924 1.02527,57.1924 0.5,56.5C 1.68081,54.1966 1.68081,51.8632 0.5,49.5C 0.967212,47.4317 1.63388,45.4317 2.5,43.5C 1.47978,41.5675 1.31312,39.5675 2,37.5C 3.42217,37.5943 4.92217,37.9276 6.5,38.5C 6.16667,39.1667 5.83333,39.8333 5.5,40.5C 10.1516,42.6591 12.6516,46.3257 13,51.5C 13.1909,49.2922 13.6909,47.2922 14.5,45.5C 14.5,47.5 14.5,49.5 14.5,51.5C 16.1439,51.2865 17.6439,51.6198 19,52.5C 18.4621,45.2362 21.2955,39.9028 27.5,36.5C 28.1667,36.5 28.8333,36.5 29.5,36.5C 31.3713,35.2028 33.3713,34.2028 35.5,33.5C 36.1667,33.5 36.8333,33.5 37.5,33.5C 38.1667,33.5 38.8333,33.5 39.5,33.5C 44.0564,35.5929 47.0564,34.2596 48.5,29.5C 49.8333,28.8333 49.8333,28.1667 48.5,27.5C 45.3728,26.0399 42.3728,26.3732 39.5,28.5C 39.5,27.8333 39.5,27.1667 39.5,26.5C 38.0256,27.4363 37.0256,28.7697 36.5,30.5C 35.5,31.1667 34.5,31.8333 33.5,32.5C 33.1667,32.5 32.8333,32.5 32.5,32.5C 36.0754,29.3494 38.0754,25.3494 38.5,20.5C 38.012,17.149 36.8453,16.8157 35,19.5C 35.1759,16.3425 37.0093,14.8425 40.5,15C 41.7101,13.9609 42.7101,12.7942 43.5,11.5C 44.4345,10.4324 44.7678,9.09903 44.5,7.5C 47.4552,8.15872 50.4552,8.49205 53.5,8.5C 53.33,9.82207 53.6634,10.9887 54.5,12C 51.7972,13.8201 50.9639,16.3201 52,19.5C 52.2926,15.0201 53.126,14.6867 54.5,18.5C 55.7108,23.2885 55.7108,28.1218 54.5,33C 55.91,33.3678 56.91,34.2011 57.5,35.5C 55.9223,36.2978 54.2556,36.7978 52.5,37C 51.3318,38.4056 51.6652,39.5723 53.5,40.5C 52.132,41.5937 50.9653,41.2603 50,39.5C 49.8333,40.1667 49.6667,40.8333 49.5,41.5C 50.4214,43.1305 51.2547,44.7971 52,46.5C 53.0113,45.6634 54.1779,45.33 55.5,45.5C 55.6495,46.552 55.4828,47.552 55,48.5C 54.6667,48.1667 54.3333,47.8333 54,47.5C 53.044,48.5786 52.2106,49.7453 51.5,51C 52.8333,52 52.8333,53 51.5,54C 49.765,54.6514 48.0983,54.4847 46.5,53.5C 42.9469,54.6247 42.6135,56.4581 45.5,59C 44.8333,59.3333 44.1667,59.6667 43.5,60C 45.5,60.6667 47.5,60.6667 49.5,60C 46.9722,59.0022 46.9722,58.1689 49.5,57.5C 52.0103,58.3422 52.677,59.8422 51.5,62C 52.4158,62.2784 53.0825,62.7784 53.5,63.5 Z"/></g>
<g><path style="opacity:1" fill="#4d8b43" d="M 42.5,30.5 C 43.8333,30.5 45.1667,30.5 46.5,30.5C 44.9894,32.4411 42.9894,32.9411 40.5,32C 41.4158,31.7216 42.0825,31.2216 42.5,30.5 Z"/></g>
<g><path style="opacity:1" fill="#729e61" d="M 48.5,27.5 C 49.8333,28.1667 49.8333,28.8333 48.5,29.5C 47.8333,29.8333 47.1667,30.1667 46.5,30.5C 45.3351,27.9781 44.0018,27.9781 42.5,30.5C 41.7611,30.631 41.0944,30.4643 40.5,30C 42.6688,27.7969 45.3354,26.9635 48.5,27.5 Z"/></g>
<g><path style="opacity:1" fill="#3a4e24" d="M 46.5,30.5 C 45.1667,30.5 43.8333,30.5 42.5,30.5C 44.0018,27.9781 45.3351,27.9781 46.5,30.5 Z"/></g>
<g><path style="opacity:1" fill="#464633" d="M 39.5,26.5 C 40.0604,24.1992 40.5604,21.8659 41,19.5C 41.4224,17.5743 42.5891,16.5743 44.5,16.5C 46.2646,15.5386 48.2646,15.2053 50.5,15.5C 50.6541,19.0254 49.3208,21.8587 46.5,24C 43.8494,24.1534 41.5161,24.9867 39.5,26.5 Z"/></g>
<g><path style="opacity:1" fill="#64a359" d="M 44.5,16.5 C 45.8333,16.5 47.1667,16.5 48.5,16.5C 48.8804,19.7916 47.5471,22.1249 44.5,23.5C 43.913,22.7666 43.913,21.7666 44.5,20.5C 43.6236,20.6309 42.9569,20.2975 42.5,19.5C 43.1925,18.4822 43.8592,17.4822 44.5,16.5 Z"/></g>
<g><path style="opacity:1" fill="#3c4422" d="M 44.5,20.5 C 45.1217,19.3734 45.955,18.3734 47,17.5C 47.5192,19.4894 46.6859,20.4894 44.5,20.5 Z"/></g>
<g><path style="opacity:1" fill="#40462f" d="M 37.5,35.5 C 39.288,35.2148 40.9547,35.5481 42.5,36.5C 43.9033,39.6006 42.9033,40.7672 39.5,40C 37.9632,38.8904 37.2965,37.3904 37.5,35.5 Z"/></g>
<g><path style="opacity:1" fill="#4e483b" d="M 29.5,36.5 C 33.0753,36.4524 35.4086,38.119 36.5,41.5C 35.0866,43.6071 33.4199,43.9405 31.5,42.5C 28.6477,41.2768 27.9811,39.2768 29.5,36.5 Z"/></g>
<g><path style="opacity:1" fill="#3d6435" d="M 31.5,42.5 C 31.3893,41.8826 31.056,41.3826 30.5,41C 32.2244,40.5518 32.891,39.7185 32.5,38.5C 34.1112,39.3202 34.7778,40.6536 34.5,42.5C 33.5,42.5 32.5,42.5 31.5,42.5 Z"/></g>
</svg>
