<?xml version="1.0" encoding="UTF-8"?>
<!DOCTYPE svg PUBLIC "-//W3C//DTD SVG 1.1//EN" "http://www.w3.org/Graphics/SVG/1.1/DTD/svg11.dtd">
<svg xmlns="http://www.w3.org/2000/svg" version="1.1" width="32px" height="32px" style="shape-rendering:geometricPrecision; text-rendering:geometricPrecision; image-rendering:optimizeQuality; fill-rule:evenodd; clip-rule:evenodd" xmlns:xlink="http://www.w3.org/1999/xlink">
<g><path style="opacity:1" fill="#bfcec6" d="M -0.5,0.5 C -0.5,0.166667 -0.5,-0.166667 -0.5,-0.5C 6.5,-0.5 13.5,-0.5 20.5,-0.5C 20.4142,0.495904 20.7476,1.32924 21.5,2C 20.8333,2.33333 20.1667,2.66667 19.5,3C 20.624,3.24917 21.624,3.74917 22.5,4.5C 22.3764,5.10667 22.0431,5.44001 21.5,5.5C 20.5,4.16667 19.5,4.16667 18.5,5.5C 16.3295,6.1966 13.9962,6.1966 11.5,5.5C 11.1667,8.5 12.5,9.83333 15.5,9.5C 15.631,10.2389 15.4643,10.9056 15,11.5C 13.9887,10.6634 12.8221,10.33 11.5,10.5C 10.2921,9.76589 8.95875,9.43255 7.5,9.5C 7.22911,11.3797 7.89578,12.713 9.5,13.5C 8.89022,14.391 8.55688,15.391 8.5,16.5C 7.84851,15.9094 7.18185,15.2427 6.5,14.5C 5.91395,14.7093 5.41395,15.0426 5,15.5C 3.66667,13.8333 2.33333,12.1667 1,10.5C 0.821287,6.97477 0.321287,3.64144 -0.5,0.5 Z"/></g>
<g><path style="opacity:1" fill="#bfcec5" d="M 20.5,-0.5 C 24.1667,-0.5 27.8333,-0.5 31.5,-0.5C 31.5,9.5 31.5,19.5 31.5,29.5C 29.7376,29.3573 28.0709,29.6906 26.5,30.5C 25.4826,27.972 24.3159,27.972 23,30.5C 20.9436,27.691 21.7769,26.3577 25.5,26.5C 25.7394,24.5328 25.4061,22.6995 24.5,21C 24.8887,19.382 26.222,18.2153 28.5,17.5C 28.1324,14.3093 27.2991,10.9759 26,7.5C 25.7216,8.4158 25.2216,9.08247 24.5,9.5C 23.1667,8.16667 21.8333,8.16667 20.5,9.5C 19.8333,9.16667 19.1667,8.83333 18.5,8.5C 17.391,8.55688 16.391,8.89022 15.5,9.5C 15.8212,7.95186 16.8212,7.28519 18.5,7.5C 20.0269,7.57298 21.0269,6.90632 21.5,5.5C 22.0431,5.44001 22.3764,5.10667 22.5,4.5C 21.624,3.74917 20.624,3.24917 19.5,3C 20.1667,2.66667 20.8333,2.33333 21.5,2C 20.7476,1.32924 20.4142,0.495904 20.5,-0.5 Z"/></g>
<g><path style="opacity:1" fill="#556947" d="M 18.5,5.5 C 18.5,6.16667 18.5,6.83333 18.5,7.5C 16.8212,7.28519 15.8212,7.95186 15.5,9.5C 12.5,9.83333 11.1667,8.5 11.5,5.5C 13.9962,6.1966 16.3295,6.1966 18.5,5.5 Z"/></g>
<g><path style="opacity:1" fill="#624735" d="M 21.5,5.5 C 21.0269,6.90632 20.0269,7.57298 18.5,7.5C 18.5,6.83333 18.5,6.16667 18.5,5.5C 19.5,4.16667 20.5,4.16667 21.5,5.5 Z"/></g>
<g><path style="opacity:1" fill="#c1d1c9" d="M -0.5,0.5 C 0.321287,3.64144 0.821287,6.97477 1,10.5C 2.33333,12.1667 3.66667,13.8333 5,15.5C 5.41395,15.0426 5.91395,14.7093 6.5,14.5C 7.18185,15.2427 7.84851,15.9094 8.5,16.5C 8.93822,16.4346 9.27155,16.6012 9.5,17C 8.41782,18.3297 7.75115,19.8297 7.5,21.5C 6.56552,22.5676 6.23219,23.901 6.5,25.5C 7.5,25.5 8.5,25.5 9.5,25.5C 9.5,24.5 9.5,23.5 9.5,22.5C 11.1667,21.8333 12.8333,21.1667 14.5,20.5C 15.209,21.404 16.209,21.7373 17.5,21.5C 18.3382,21.1583 18.6716,20.4916 18.5,19.5C 19.791,19.7373 20.791,19.404 21.5,18.5C 21.8333,17.8333 22.1667,17.1667 22.5,16.5C 23.1667,16.5 23.5,16.1667 23.5,15.5C 24.6857,14.2946 24.6857,12.9613 23.5,11.5C 23.8333,10.8333 24.1667,10.1667 24.5,9.5C 25.2216,9.08247 25.7216,8.4158 26,7.5C 27.2991,10.9759 28.1324,14.3093 28.5,17.5C 26.222,18.2153 24.8887,19.382 24.5,21C 25.4061,22.6995 25.7394,24.5328 25.5,26.5C 21.7769,26.3577 20.9436,27.691 23,30.5C 24.3159,27.972 25.4826,27.972 26.5,30.5C 28.0709,29.6906 29.7376,29.3573 31.5,29.5C 31.5,30.1667 31.5,30.8333 31.5,31.5C 20.8333,31.5 10.1667,31.5 -0.5,31.5C -0.5,21.1667 -0.5,10.8333 -0.5,0.5 Z"/></g>
<g><path style="opacity:1" fill="#9aa29b" d="M 18.5,8.5 C 19.1667,8.83333 19.8333,9.16667 20.5,9.5C 20.4017,12.2476 21.4017,12.9143 23.5,11.5C 24.6857,12.9613 24.6857,14.2946 23.5,15.5C 22.3772,12.9586 21.0439,12.9586 19.5,15.5C 20.325,16.3857 21.325,16.719 22.5,16.5C 22.1667,17.1667 21.8333,17.8333 21.5,18.5C 19.8041,16.871 18.8041,17.2043 18.5,19.5C 18.6716,20.4916 18.3382,21.1583 17.5,21.5C 16.8597,18.3178 15.8597,17.9845 14.5,20.5C 12.8333,21.1667 11.1667,21.8333 9.5,22.5C 11.1462,19.0807 13.6462,16.414 17,14.5C 18.0086,12.9751 18.5086,11.3084 18.5,9.5C 18.5,9.16667 18.5,8.83333 18.5,8.5 Z"/></g>
<g><path style="opacity:1" fill="#475539" d="M 17.5,21.5 C 16.209,21.7373 15.209,21.404 14.5,20.5C 15.8597,17.9845 16.8597,18.3178 17.5,21.5 Z"/></g>
<g><path style="opacity:1" fill="#3f462e" d="M 21.5,18.5 C 20.791,19.404 19.791,19.7373 18.5,19.5C 18.8041,17.2043 19.8041,16.871 21.5,18.5 Z"/></g>
<g><path style="opacity:1" fill="#405d30" d="M 23.5,15.5 C 23.5,16.1667 23.1667,16.5 22.5,16.5C 21.325,16.719 20.325,16.3857 19.5,15.5C 21.0439,12.9586 22.3772,12.9586 23.5,15.5 Z"/></g>
<g><path style="opacity:1" fill="#787568" d="M 18.5,8.5 C 18.5,8.83333 18.5,9.16667 18.5,9.5C 14.8616,13.4741 11.1949,17.4741 7.5,21.5C 7.75115,19.8297 8.41782,18.3297 9.5,17C 9.27155,16.6012 8.93822,16.4346 8.5,16.5C 8.55688,15.391 8.89022,14.391 9.5,13.5C 11.0481,13.1788 11.7148,12.1788 11.5,10.5C 12.8221,10.33 13.9887,10.6634 15,11.5C 15.4643,10.9056 15.631,10.2389 15.5,9.5C 16.391,8.89022 17.391,8.55688 18.5,8.5 Z"/></g>
<g><path style="opacity:1" fill="#516e44" d="M 11.5,10.5 C 11.7148,12.1788 11.0481,13.1788 9.5,13.5C 7.89578,12.713 7.22911,11.3797 7.5,9.5C 8.95875,9.43255 10.2921,9.76589 11.5,10.5 Z"/></g>
<g><path style="opacity:1" fill="#4d673d" d="M 24.5,9.5 C 24.1667,10.1667 23.8333,10.8333 23.5,11.5C 21.4017,12.9143 20.4017,12.2476 20.5,9.5C 21.8333,8.16667 23.1667,8.16667 24.5,9.5 Z"/></g>
<g><path style="opacity:1" fill="#65432c" d="M 18.5,9.5 C 18.5086,11.3084 18.0086,12.9751 17,14.5C 13.6462,16.414 11.1462,19.0807 9.5,22.5C 9.5,23.5 9.5,24.5 9.5,25.5C 8.5,25.5 7.5,25.5 6.5,25.5C 6.23219,23.901 6.56552,22.5676 7.5,21.5C 11.1949,17.4741 14.8616,13.4741 18.5,9.5 Z"/></g>
</svg>
